<?xml version="1.0" encoding="UTF-8"?>

<svg
   width="8.087059mm"
   height="8.0800323mm"
   viewBox="0 0 8.087059 8.0800323"
   version="1.1"
   xmlns="http://www.w3.org/2000/svg"
   xmlns:svg="http://www.w3.org/2000/svg">
  <g
     transform="translate(-64.328134,-86.227315)">
    <path
       style="fill:#000000;stroke-width:0.471523"
       d="m 69.843748,88.058696 c 0.0561,-0.06405 0.78583,-0.600888 1.06607,-0.165096 0.20652,0.321108 -0.49071,0.704541 -0.79961,1.129589 -0.0564,0.210107 -0.0884,0.964814 -0.72308,2.023566 -0.0905,0.150947 0.32464,2.025271 -0.21254,2.661263 -0.40348,0.477712 -0.58694,-1.464541 -0.89264,-0.920704 -1.65786,2.949281 2.877689,0.84099 4.060269,0.02877 -3.585562,-0.682317 -1.051594,-3.056007 0.07298,-6.588776 -1.760146,2.91299 -4.703368,2.337594 -6.32691,6.180399 0.0345,-2.032393 -1.39586,-0.529781 -1.73008,-0.837067 -0.27172,-0.338085 1.37324,-1.531782 1.89868,-1.711493 0.3204,-0.800841 2.61317,-2.323247 3.58706,-1.800451 z" />
  </g>
</svg>
